# xmcd
#
# Track frame offsets:
#	150
#	13703
#	30267
#	44600
#	58116
#	76185
#	91802
#	104774
#	118667
#	133178
#	148621
#	163974
#	174898
#	188601
#	204048
#	218389
#	233445
#	247111
#	261561
#	275864
#
# Disc length: 3856 seconds
#
# Revision: 1
# Processed by: cddbd v1.5.2PL0 Copyright (c) Steve Scherf et al.
# Submitted via: audiograbber 1.83.01
#
DISCID=180f0e14
DTITLE=Marc Pircher - 20 Jahre Vollgas!
DYEAR=2013
DGENRE=Volkstümliche Musik
TTITLE0=Ich schwör
TTITLE1=Anna Lena (Remix)
TTITLE2=Schatzi schenk mir ein Foto (Duett mit Mickie Krause)
TTITLE3=Einfach genial
TTITLE4=7 Sünden "Hit Version"
TTITLE5=Der Traum von Babylon
TTITLE6=Lady unbekannt
TTITLE7=Die schönste Liebe (Duett mit Judith Pixner)
TTITLE8=Du schon wieder
TTITLE9=Wenn sie die alten Lieder hört
TTITLE10=Nur auf'm Berg
TTITLE11=Hey Diandl spürst es so wie i
TTITLE12=A guate Musi - a guate Zeit
TTITLE13=Jetzt bist da (für Anna)
TTITLE14=Alarmstufe rot - ich bin verliebt
TTITLE15=So wird es immer sein
TTITLE16=Sternenstaub
TTITLE17=Diese Nacht oder nie
TTITLE18=Alte Mühle im Zillertal
TTITLE19=Es war'n mehr als 7 Sünden
EXTD=
EXTT0=
EXTT1=
EXTT2=
EXTT3=
EXTT4=
EXTT5=
EXTT6=
EXTT7=
EXTT8=
EXTT9=
EXTT10=
EXTT11=
EXTT12=
EXTT13=
EXTT14=
EXTT15=
EXTT16=
EXTT17=
EXTT18=
EXTT19=
PLAYORDER=
